General
Complete name                  : C:\Users\joeyz\OneDrive - mail.scut.edu.cn\Current Projects\2024.04.02 Motion Sickness\Du_Dataset\videos\dotsall.mp4
Format                         : MPEG-4
Format profile                 : Base Media
Codec ID                       : isom (isom/iso2/avc1/mp41)
File size                      : 34.5 MiB
Duration                       : 1 min 0 s
Overall bit rate               : 4 822 kb/s
Frame rate                     : 30.000 FPS
Writing application            : Lavf55.19.104

Video
ID                             : 1
Format                         : AVC
Format/Info                    : Advanced Video Codec
Format profile                 : High@L4
Format settings                : CABAC / 2 Ref Frames
Format settings, CABAC         : Yes
Format settings, Reference fra : 2 frames
Codec ID                       : avc1
Codec ID/Info                  : Advanced Video Coding
Duration                       : 1 min 0 s
Bit rate                       : 4 693 kb/s
Width                          : 1 440 pixels
Height                         : 1 440 pixels
Display aspect ratio           : 1.000
Frame rate mode                : Constant
Frame rate                     : 30.000 FPS
Color space                    : YUV
Chroma subsampling             : 4:2:0
Bit depth                      : 8 bits
Scan type                      : Progressive
Bits/(Pixel*Frame)             : 0.075
Stream size                    : 33.6 MiB (97%)
Color range                    : Limited
Color primaries                : BT.709
Transfer characteristics       : BT.709
Matrix coefficients            : BT.709
Codec configuration box        : avcC

Audio
ID                             : 2
Format                         : AAC LC
Format/Info                    : Advanced Audio Codec Low Complexity
Codec ID                       : mp4a-40-2
Duration                       : 1 min 0 s
Bit rate mode                  : Constant
Bit rate                       : 126 kb/s
Channel(s)                     : 2 channels
Channel layout                 : L R
Sampling rate                  : 44.1 kHz
Frame rate                     : 43.066 FPS (1024 SPF)
Compression mode               : Lossy
Stream size                    : 921 KiB (3%)
Default                        : Yes
Alternate group                : 1

